<?xml version="1.0" encoding="UTF-8"?>
<svg id="Layer_1" data-name="Layer 1" xmlns="http://www.w3.org/2000/svg" width="256" height="256" viewBox="0 0 256 256">
  <path d="M128,0l110.85,64v128l-110.85,64L17.15,192V64L128,0Z" style="fill: #fff; stroke-width: 0px;"/>
  <path d="M238.85,64L128,0,17.15,64v128l110.85,64,49.66-28.67c.12-19.13.18-35.47.18-39.88v-11.93c0-1.05.07-2.78.18-5.13.06-1.33.12-2.87.19-4.59-4.41,4.4-6.8,6.24-10.85,8.44-7.54,4.04-17.29,6.24-27.04,6.24-14.53,0-27.4-4.95-36.42-13.76-9.75-9.72-14.9-24.4-14.9-42.02,0-35.23,20.05-56.7,52.97-56.7,15.26,0,27.59,4.95,36.23,14.5-.18-1.65-.18-4.04-.18-5.69v-5.87h29.98c-1.1,7.89-1.47,14.68-1.47,26.61v90.09c0,2.97.02,11.63.08,22.99l32.24-18.62V64ZM146.57,157.17c-16.92,0-27.96-12.66-27.96-32.29s11.22-33.39,28.88-33.39,29.8,13.58,29.8,32.29c0,6.97-1.29,12.66-4.41,18.17-4.97,9.36-15.27,15.23-26.3,15.23Z" style="fill: #202344; fill-rule: evenodd; stroke-width: 0px;"/>
  <path d="M238.81,63.97L128,0,17.15,64v127.41L238.81,63.97Z" style="fill: rgba(255, 255, 255, .25); fill-rule: evenodd; stroke-width: 0px;"/>
</svg>